<svg viewBox="0 0 1300 840" xmlns="http://www.w3.org/2000/svg" width="1300" height="840" style="background:white;font-family:'Segoe UI',Helvetica,Arial,sans-serif;">
  <defs>
    <marker id="arr" viewBox="0 0 10 10" refX="9" refY="5" markerWidth="6" markerHeight="6" orient="auto-start-reverse">
      <path d="M1 1L9 5L1 9" fill="none" stroke="#555" stroke-width="1.8" stroke-linecap="round" stroke-linejoin="round"/>
    </marker>
    <marker id="arr-red" viewBox="0 0 10 10" refX="9" refY="5" markerWidth="6" markerHeight="6" orient="auto-start-reverse">
      <path d="M1 1L9 5L1 9" fill="none" stroke="#d62b2b" stroke-width="1.8" stroke-linecap="round" stroke-linejoin="round"/>
    </marker>
    <marker id="arr-green" viewBox="0 0 10 10" refX="9" refY="5" markerWidth="6" markerHeight="6" orient="auto-start-reverse">
      <path d="M1 1L9 5L1 9" fill="none" stroke="#2E7D32" stroke-width="1.8" stroke-linecap="round" stroke-linejoin="round"/>
    </marker>
    <marker id="arr-orange" viewBox="0 0 10 10" refX="9" refY="5" markerWidth="6" markerHeight="6" orient="auto-start-reverse">
      <path d="M1 1L9 5L1 9" fill="none" stroke="#E65100" stroke-width="1.8" stroke-linecap="round" stroke-linejoin="round"/>
    </marker>
    <marker id="arr-purple" viewBox="0 0 10 10" refX="9" refY="5" markerWidth="6" markerHeight="6" orient="auto-start-reverse">
      <path d="M1 1L9 5L1 9" fill="none" stroke="#AB47BC" stroke-width="1.8" stroke-linecap="round" stroke-linejoin="round"/>
    </marker>
    <filter id="shadow">
      <feDropShadow dx="0" dy="2" stdDeviation="3" flood-color="#00000020"/>
    </filter>
  </defs>

  <rect width="1300" height="840" fill="white"/>

  <!-- TITLE -->
  <text x="650" y="20" text-anchor="middle" font-size="15" font-weight="700" fill="#1a1a2e">AI Legal Assistant for SMB in Kazakhstan — System Architecture</text>
  <text x="650" y="36" text-anchor="middle" font-size="10" fill="#3a78b0" font-style="italic">Agentic RAG Pipeline · LangGraph Graph Walk · 4 Specialized Agents · Hybrid Search · RAGAS</text>

  <!-- ═══════════════════════════════════════════ -->
  <!--  AGENT CARDS  (all shifted +20 from v3)     -->
  <!-- ═══════════════════════════════════════════ -->

  <!-- ① RETRIEVAL AGENT — upper card -->
  <rect x="133" y="57" width="314" height="133" rx="8" fill="#E0F7FA" stroke="#00838F" stroke-width="2" filter="url(#shadow)"/>
  <rect x="135" y="58" width="310" height="21" rx="5" fill="#00838F"/>
  <circle cx="149" cy="68" r="10" fill="white"/>
  <text x="149" y="73" text-anchor="middle" font-size="12" fill="#00838F" font-weight="800">1</text>
  <text x="164" y="73" font-size="10" fill="white" font-weight="700">Retrieval Agent</text>

  <!-- ③ GENERATION AGENT — card -->
  <rect x="593" y="57" width="314" height="133" rx="8" fill="#F3E5F5" stroke="#7B1FA2" stroke-width="2" filter="url(#shadow)"/>
  <rect x="595" y="58" width="310" height="21" rx="5" fill="#7B1FA2"/>
  <circle cx="609" cy="68" r="10" fill="white"/>
  <text x="609" y="73" text-anchor="middle" font-size="12" fill="#7B1FA2" font-weight="800">3</text>
  <text x="624" y="73" font-size="10" fill="white" font-weight="700">Generation Agent</text>

  <!-- ④ ORCHESTRATING AGENT — card -->
  <rect x="912" y="57" width="146" height="100" rx="8" fill="none" stroke="#FF8F00" stroke-width="2.5" filter="url(#shadow)"/>
  <rect x="914" y="58" width="142" height="21" rx="5" fill="#FF8F00"/>
  <circle cx="928" cy="68" r="10" fill="white"/>
  <text x="928" y="73" text-anchor="middle" font-size="12" fill="#FF8F00" font-weight="800">4</text>
  <text x="943" y="73" font-size="10" fill="white" font-weight="700">Orchestrating Agent</text>

  <!-- ① RETRIEVAL AGENT — lower card -->
  <rect x="28" y="231" width="644" height="197" rx="8" fill="#E0F7FA" stroke="#00838F" stroke-width="2" filter="url(#shadow)"/>
  <rect x="30" y="232" width="640" height="21" rx="5" fill="#00838F"/>
  <circle cx="44" cy="242" r="10" fill="white"/>
  <text x="44" y="247" text-anchor="middle" font-size="12" fill="#00838F" font-weight="800">1</text>
  <text x="59" y="247" font-size="10" fill="white" font-weight="700">Retrieval Agent — Search Tools</text>

  <!-- ② MCP AGENT — card -->
  <rect x="700" y="231" width="302" height="205" rx="8" fill="#FFFDE7" stroke="#F9A825" stroke-width="2" filter="url(#shadow)"/>
  <rect x="702" y="232" width="298" height="21" rx="5" fill="#F57F17"/>
  <circle cx="716" cy="242" r="10" fill="white"/>
  <text x="716" y="247" text-anchor="middle" font-size="12" fill="#F57F17" font-weight="800">2</text>
  <text x="731" y="247" font-size="10" fill="white" font-weight="700">MCP Agent</text>

  <!-- ═══════════════════════════════════════════ -->
  <!--  KNOWLEDGE BASE                             -->
  <!-- ═══════════════════════════════════════════ -->

  <rect x="30" y="540" width="258" height="218" rx="10" fill="#F3E5F5" stroke="#AB47BC" stroke-width="1.2" stroke-dasharray="5,4" opacity="0.9" filter="url(#shadow)"/>
  <text x="48" y="556" font-size="10" fill="#7B1FA2" font-weight="600" font-style="italic">Local Knowledge Base (ChromaDB)</text>
  <rect x="40" y="563" width="108" height="38" rx="7" fill="#CE93D8" stroke="#AB47BC" stroke-width="1" filter="url(#shadow)"/>
  <text x="94" y="587" text-anchor="middle" font-size="9.5" fill="#4A148C" font-weight="700">Tax Code RK</text>
  <rect x="162" y="563" width="116" height="38" rx="7" fill="#CE93D8" stroke="#AB47BC" stroke-width="1" filter="url(#shadow)"/>
  <text x="220" y="587" text-anchor="middle" font-size="9.5" fill="#4A148C" font-weight="700">Labor Code RK</text>
  <rect x="40" y="610" width="108" height="38" rx="7" fill="#CE93D8" stroke="#AB47BC" stroke-width="1" filter="url(#shadow)"/>
  <text x="94" y="634" text-anchor="middle" font-size="9.5" fill="#4A148C" font-weight="700">Civil Code RK</text>
  <rect x="162" y="610" width="116" height="38" rx="7" fill="#CE93D8" stroke="#AB47BC" stroke-width="1" filter="url(#shadow)"/>
  <text x="220" y="634" text-anchor="middle" font-size="9.5" fill="#4A148C" font-weight="700">Business Code RK</text>
  <rect x="75" y="657" width="138" height="68" rx="7" fill="#CE93D8" stroke="#AB47BC" stroke-width="1" filter="url(#shadow)"/>
  <text x="144" y="677" text-anchor="middle" font-size="10" fill="#4A148C" font-weight="700">PDF Parser</text>
  <text x="144" y="692" text-anchor="middle" font-size="8.5" fill="#6A1B9A">pypdf / docling</text>
  <text x="144" y="706" text-anchor="middle" font-size="8.5" fill="#6A1B9A">chunk_size=500</text>

  <!-- ═══════════════════════════════════════════ -->
  <!--  PIPELINE NODES                             -->
  <!-- ═══════════════════════════════════════════ -->

  <!-- User -->
  <rect x="36" y="85" width="88" height="62" rx="9" fill="#EEEEEE" stroke="#9E9E9E" stroke-width="1.3" filter="url(#shadow)"/>
  <text x="80" y="113" text-anchor="middle" font-size="11" fill="#333" font-weight="700">User</text>
  <text x="80" y="129" text-anchor="middle" font-size="9.5" fill="#555">Question</text>

  <!-- 1. Query Rewrite -->
  <rect x="140" y="82" width="140" height="74" rx="9" fill="#BBDEFB" stroke="#64B5F6" stroke-width="1.5" filter="url(#shadow)"/>
  <text x="210" y="102" text-anchor="middle" font-size="11" fill="#0D47A1" font-weight="700">1. Query Rewrite</text>
  <line x1="140" y1="109" x2="280" y2="109" stroke="#64B5F6" stroke-width="0.8"/>
  <text x="210" y="124" text-anchor="middle" font-size="9" fill="#1565C0">none | HyDE</text>
  <text x="210" y="138" text-anchor="middle" font-size="9" fill="#1565C0">step_back | keyword</text>

  <!-- 3. Doc Grader -->
  <rect x="300" y="82" width="140" height="74" rx="9" fill="#BBDEFB" stroke="#64B5F6" stroke-width="1.5" filter="url(#shadow)"/>
  <text x="370" y="102" text-anchor="middle" font-size="11" fill="#0D47A1" font-weight="700">3. Doc Grader</text>
  <line x1="300" y1="109" x2="440" y2="109" stroke="#64B5F6" stroke-width="0.8"/>
  <text x="370" y="124" text-anchor="middle" font-size="9" fill="#1565C0">LLM: strict relevance</text>
  <text x="370" y="138" text-anchor="middle" font-size="9" fill="#1565C0">scoring</text>

  <!-- 5. LLM Generate -->
  <rect x="600" y="82" width="140" height="74" rx="9" fill="#E1BEE7" stroke="#AB47BC" stroke-width="1.5" filter="url(#shadow)"/>
  <text x="670" y="102" text-anchor="middle" font-size="11" fill="#4A148C" font-weight="700">5. LLM Generate</text>
  <line x1="600" y1="109" x2="740" y2="109" stroke="#AB47BC" stroke-width="0.8"/>
  <text x="670" y="124" text-anchor="middle" font-size="9" fill="#6A1B9A">gpt-4.1-mini</text>
  <text x="670" y="138" text-anchor="middle" font-size="9" fill="#6A1B9A">RAG + MCP context</text>

  <!-- 6. Hallucination Check -->
  <rect x="760" y="82" width="140" height="74" rx="9" fill="#E1BEE7" stroke="#AB47BC" stroke-width="1.5" filter="url(#shadow)"/>
  <text x="830" y="100" text-anchor="middle" font-size="11" fill="#4A148C" font-weight="700">6. Hallucination</text>
  <text x="830" y="114" text-anchor="middle" font-size="11" fill="#4A148C" font-weight="700">Check</text>
  <line x1="760" y1="121" x2="900" y2="121" stroke="#AB47BC" stroke-width="0.8"/>
  <text x="830" y="136" text-anchor="middle" font-size="9" fill="#6A1B9A">grounded: true / false</text>

  <!-- 7. Reflect — ④ Orchestrating Agent -->
  <rect x="920" y="82" width="130" height="72" rx="9" fill="#FFF8E1" stroke="#FF8F00" stroke-width="2.5" filter="url(#shadow)"/>
  <text x="985" y="100" text-anchor="middle" font-size="11" fill="#E65100" font-weight="700">7. Reflect ★</text>
  <line x1="920" y1="107" x2="1050" y2="107" stroke="#FF8F00" stroke-width="0.8"/>
  <text x="985" y="121" text-anchor="middle" font-size="9" fill="#BF360C">accept / retry / stop</text>
  <text x="985" y="134" text-anchor="middle" font-size="8" fill="#E65100" font-style="italic">RAGAS judge</text>
  <text x="985" y="146" text-anchor="middle" font-size="8" fill="#BF360C">decides when to stop</text>

  <!-- ANSWER -->
  <rect x="1068" y="87" width="82" height="62" rx="9" fill="#A5D6A7" stroke="#43A047" stroke-width="1.8" filter="url(#shadow)"/>
  <text x="1109" y="112" text-anchor="middle" font-size="12" fill="#1B5E20" font-weight="800">ANSWER</text>
  <text x="1109" y="128" text-anchor="middle" font-size="9" fill="#2E7D32">Streaming</text>

  <!-- LANGFUSE -->
  <rect x="1165" y="78" width="110" height="90" rx="9" fill="#FFCDD2" stroke="#EF9A9A" stroke-width="1.5" filter="url(#shadow)"/>
  <text x="1220" y="98" text-anchor="middle" font-size="11" fill="#B71C1C" font-weight="700">LangFuse</text>
  <line x1="1165" y1="105" x2="1275" y2="105" stroke="#EF9A9A" stroke-width="0.8"/>
  <text x="1220" y="121" text-anchor="middle" font-size="9" fill="#C62828">Observability</text>
  <text x="1220" y="135" text-anchor="middle" font-size="9" fill="#C62828">Trace</text>
  <text x="1220" y="149" text-anchor="middle" font-size="9" fill="#C62828">Score</text>

  <!-- ═══════════════════════════════════════════ -->
  <!--  RETRIEVAL TOOL NODES                       -->
  <!-- ═══════════════════════════════════════════ -->

  <!-- 2a. Vector DB -->
  <rect x="42" y="257" width="132" height="62" rx="9" fill="#C8E6C9" stroke="#66BB6A" stroke-width="1.5" filter="url(#shadow)"/>
  <text x="108" y="277" text-anchor="middle" font-size="10.5" fill="#1B5E20" font-weight="700">2a. Vector DB</text>
  <line x1="42" y1="285" x2="174" y2="285" stroke="#66BB6A" stroke-width="0.8"/>
  <text x="108" y="300" text-anchor="middle" font-size="9" fill="#2E7D32">ChromaDB</text>
  <text x="108" y="312" text-anchor="middle" font-size="8" fill="#388E3C">text-embedding-3-small</text>

  <!-- Hybrid Search badge -->
  <rect x="44" y="327" width="128" height="18" rx="5" fill="#A5D6A7" stroke="#388E3C" stroke-width="1.4"/>
  <text x="108" y="339" text-anchor="middle" font-size="8.5" fill="#1B5E20" font-weight="700">⊕ Hybrid Search</text>

  <!-- 2b. BM25 Index -->
  <rect x="42" y="353" width="132" height="62" rx="9" fill="#C8E6C9" stroke="#66BB6A" stroke-width="1.5" filter="url(#shadow)"/>
  <text x="108" y="373" text-anchor="middle" font-size="10.5" fill="#1B5E20" font-weight="700">2b. BM25 Index</text>
  <line x1="42" y1="381" x2="174" y2="381" stroke="#66BB6A" stroke-width="0.8"/>
  <text x="108" y="395" text-anchor="middle" font-size="9" fill="#2E7D32">BM25Okapi</text>
  <text x="108" y="408" text-anchor="middle" font-size="8" fill="#388E3C">16,994 chunks</text>

  <!-- 2c. RRF Fusion -->
  <rect x="222" y="292" width="132" height="76" rx="9" fill="#C8E6C9" stroke="#66BB6A" stroke-width="1.5" filter="url(#shadow)"/>
  <text x="288" y="312" text-anchor="middle" font-size="10.5" fill="#1B5E20" font-weight="700">2c. RRF Fusion</text>
  <line x1="222" y1="319" x2="354" y2="319" stroke="#66BB6A" stroke-width="0.8"/>
  <text x="288" y="334" text-anchor="middle" font-size="9" fill="#2E7D32">Rank merging</text>
  <text x="288" y="348" text-anchor="middle" font-size="8.5" fill="#388E3C">score combination</text>

  <!-- 4. Cross-Encoder -->
  <rect x="510" y="265" width="148" height="76" rx="9" fill="#C8E6C9" stroke="#388E3C" stroke-width="2.2" filter="url(#shadow)"/>
  <text x="584" y="287" text-anchor="middle" font-size="11" fill="#1B5E20" font-weight="700">4. Cross-Encoder</text>
  <line x1="510" y1="294" x2="658" y2="294" stroke="#388E3C" stroke-width="0.8"/>
  <text x="584" y="310" text-anchor="middle" font-size="9" fill="#2E7D32">LLM Re-ranking</text>
  <text x="584" y="324" text-anchor="middle" font-size="8.5" fill="#388E3C">score 0–10</text>

  <!-- MCP Legal Search -->
  <rect x="710" y="263" width="280" height="100" rx="9" fill="#FFF9C4" stroke="#F9A825" stroke-width="1.8" filter="url(#shadow)"/>
  <text x="850" y="285" text-anchor="middle" font-size="11" fill="#E65100" font-weight="700">MCP Legal Search</text>
  <line x1="710" y1="292" x2="990" y2="292" stroke="#F9A825" stroke-width="0.8"/>
  <text x="850" y="308" text-anchor="middle" font-size="9" fill="#BF360C">adilet.zan.kz · kgd.gov.kz · egov.kz</text>
  <text x="850" y="324" text-anchor="middle" font-size="9" fill="#BF360C">DuckDuckGo site filter</text>
  <text x="850" y="340" text-anchor="middle" font-size="8" fill="#E65100" font-style="italic">External legal database search via MCP protocol</text>

  <!-- 8. Reformulate -->
  <rect x="500" y="460" width="156" height="60" rx="9" fill="#BBDEFB" stroke="#64B5F6" stroke-width="1.5" filter="url(#shadow)"/>
  <text x="578" y="485" text-anchor="middle" font-size="11" fill="#0D47A1" font-weight="700">8. Reformulate</text>
  <line x1="500" y1="491" x2="656" y2="491" stroke="#64B5F6" stroke-width="0.8"/>
  <text x="578" y="507" text-anchor="middle" font-size="9" fill="#1565C0">retry_retrieval</text>

  <!-- ═══════════════════════════════════════════ -->
  <!--  ARROWS                                     -->
  <!-- ═══════════════════════════════════════════ -->

  <!-- KB → Hybrid Search (index) -->
  <line x1="108" y1="540" x2="108" y2="415" stroke="#AB47BC" stroke-width="1.5"/>
  <line x1="108" y1="415" x2="108" y2="343" stroke="#AB47BC" stroke-width="1.5" stroke-dasharray="5,4" marker-end="url(#arr-purple)"/>
  <rect x="112" y="450" width="36" height="14" rx="3" fill="#F3E5F5"/>
  <text x="130" y="460" text-anchor="middle" font-size="8.5" fill="#7B1FA2" font-weight="600">index</text>

  <!-- User → Query Rewrite -->
  <line x1="124" y1="116" x2="138" y2="116" stroke="#555" stroke-width="1.5" marker-end="url(#arr)"/>

  <!-- LLM Generate → Hallucination Check -->
  <line x1="740" y1="118" x2="758" y2="118" stroke="#555" stroke-width="1.5" marker-end="url(#arr)"/>

  <!-- Hallucination Check → Reflect -->
  <line x1="900" y1="118" x2="918" y2="118" stroke="#555" stroke-width="1.5" marker-end="url(#arr)"/>

  <!-- Reflect → Answer -->
  <line x1="1050" y1="118" x2="1066" y2="118" stroke="#555" stroke-width="1.5" marker-end="url(#arr)"/>

  <!-- Reflect → LangFuse (trace) -->
  <path d="M1050 82 L1050 62 L1220 62 L1220 78" stroke="#d62b2b" stroke-width="1.2" stroke-dasharray="4,3" marker-end="url(#arr-red)" fill="none"/>
  <text x="1135" y="58" text-anchor="middle" font-size="8" fill="#d62b2b">trace</text>

  <!-- retry_generation arc (Reflect → LLM Generate) -->
  <path d="M985 82 C985 64 670 64 670 82" stroke="#d62b2b" stroke-width="1.4" marker-end="url(#arr-red)" fill="none" stroke-dasharray="5,3"/>
  <rect x="790" y="55" width="100" height="14" rx="3" fill="#FFEBEE"/>
  <text x="840" y="65" text-anchor="middle" font-size="8.5" fill="#d62b2b" font-weight="600">retry_generation</text>

  <!-- QR → vertical bus → VecDB and BM25 -->
  <path d="M210 156 L210 214 L22 214" stroke="#555" stroke-width="1.2" fill="none"/>
  <line x1="22" y1="214" x2="22" y2="417" stroke="#555" stroke-width="1.2"/>
  <circle cx="22" cy="214" r="3.5" fill="#555"/>
  <line x1="22" y1="288" x2="42" y2="288" stroke="#555" stroke-width="1.2" marker-end="url(#arr)"/>
  <circle cx="22" cy="288" r="3.5" fill="#555"/>
  <line x1="22" y1="384" x2="42" y2="384" stroke="#555" stroke-width="1.2" marker-end="url(#arr)"/>
  <circle cx="22" cy="384" r="3.5" fill="#555"/>

  <!-- VecDB → RRF -->
  <path d="M174 288 L200 288 L200 330 L222 330" stroke="#555" stroke-width="1.2" marker-end="url(#arr)" fill="none"/>
  <rect x="172" y="273" width="40" height="12" rx="3" fill="#E8F5E9"/>
  <text x="192" y="282" text-anchor="middle" font-size="7.5" fill="#2E7D32" font-weight="600">15 docs</text>

  <!-- BM25 → RRF -->
  <path d="M174 384 L200 384 L200 330" stroke="#555" stroke-width="1.2" fill="none"/>
  <rect x="172" y="369" width="40" height="12" rx="3" fill="#E8F5E9"/>
  <text x="192" y="378" text-anchor="middle" font-size="7.5" fill="#2E7D32" font-weight="600">15 docs</text>
  <circle cx="200" cy="330" r="3.5" fill="#555"/>

  <!-- RRF → Doc Grader -->
  <path d="M354 330 L382 330 L382 177 L370 177 L370 158" stroke="#555" stroke-width="1.3" marker-end="url(#arr)" fill="none"/>
  <rect x="385" y="248" width="36" height="12" rx="3" fill="#E8F5E9"/>
  <text x="403" y="257" text-anchor="middle" font-size="7.5" fill="#2E7D32" font-weight="600">8 docs</text>

  <!-- Doc Grader → Cross-Encoder (≥2 docs) -->
  <path d="M440 118 L584 118 L584 263" stroke="#2E7D32" stroke-width="1.4" marker-end="url(#arr-green)" fill="none"/>
  <rect x="480" y="106" width="52" height="14" rx="3" fill="#E8F5E9"/>
  <text x="506" y="116" text-anchor="middle" font-size="8.5" fill="#2E7D32" font-weight="600">≥2 docs</text>

  <!-- Doc Grader → MCP (<2 docs) -->
  <path d="M370 158 L370 214 L850 214 L850 261" stroke="#E65100" stroke-width="1.3" stroke-dasharray="5,3" marker-end="url(#arr-orange)" fill="none"/>
  <rect x="560" y="206" width="84" height="14" rx="3" fill="#FFFDE7"/>
  <text x="602" y="216" text-anchor="middle" font-size="8.5" fill="#E65100" font-weight="600">&lt;2 docs → MCP</text>

  <!-- MCP → Cross-Encoder -->
  <line x1="710" y1="303" x2="660" y2="303" stroke="#555" stroke-width="1.2" marker-end="url(#arr)"/>

  <!-- Cross-Encoder → LLM Generate -->
  <path d="M584 265 L584 170 L670 170 L670 158" stroke="#555" stroke-width="1.5" marker-end="url(#arr)" fill="none"/>

  <!-- Reflect → Reformulate (retry_retrieval) -->
  <path d="M985 156 L985 222 L1010 222 L1010 490 L658 490" stroke="#d62b2b" stroke-width="1.5" stroke-dasharray="6,3" marker-end="url(#arr-red)" fill="none"/>
  <rect x="786" y="482" width="96" height="14" rx="3" fill="#FFEBEE"/>
  <text x="834" y="492" text-anchor="middle" font-size="8.5" fill="#d62b2b" font-weight="600">retry_retrieval</text>

  <!-- Reformulate → Query Rewrite -->
  <path d="M500 490 L210 490 L210 158" stroke="#d62b2b" stroke-width="1.5" stroke-dasharray="6,3" marker-end="url(#arr-red)" fill="none"/>

  <!-- ═══════════════════════════════════════════ -->
  <!--  LEGEND                                     -->
  <!-- ═══════════════════════════════════════════ -->

  <line x1="30" y1="775" x2="1270" y2="775" stroke="#ddd" stroke-width="1"/>

  <circle cx="42" cy="791" r="10" fill="#00838F"/>
  <text x="42" y="796" text-anchor="middle" font-size="11" fill="white" font-weight="800">1</text>
  <text x="57" y="796" font-size="9" fill="#333">Retrieval Agent</text>

  <circle cx="182" cy="791" r="10" fill="#F57F17"/>
  <text x="182" y="796" text-anchor="middle" font-size="11" fill="white" font-weight="800">2</text>
  <text x="197" y="796" font-size="9" fill="#333">MCP Agent</text>

  <circle cx="302" cy="791" r="10" fill="#7B1FA2"/>
  <text x="302" y="796" text-anchor="middle" font-size="11" fill="white" font-weight="800">3</text>
  <text x="317" y="796" font-size="9" fill="#333">Generation Agent</text>

  <circle cx="452" cy="791" r="10" fill="#FF8F00"/>
  <text x="452" y="796" text-anchor="middle" font-size="11" fill="white" font-weight="800">4</text>
  <text x="467" y="796" font-size="9" fill="#333">Orchestrating Agent ★</text>

  <rect x="628" y="785" width="14" height="12" rx="2" fill="#FFCDD2" stroke="#EF9A9A" stroke-width="1"/>
  <text x="648" y="796" font-size="9" fill="#333">Observability</text>

  <rect x="730" y="785" width="14" height="12" rx="2" fill="#A5D6A7" stroke="#43A047" stroke-width="1"/>
  <text x="750" y="796" font-size="9" fill="#333">Answer</text>

  <rect x="808" y="785" width="14" height="12" rx="2" fill="#CE93D8" stroke="#AB47BC" stroke-width="1"/>
  <text x="828" y="796" font-size="9" fill="#333">Knowledge Base</text>

  <line x1="940" y1="791" x2="976" y2="791" stroke="#555" stroke-width="1.5" marker-end="url(#arr)"/>
  <text x="982" y="796" font-size="9" fill="#333">Main flow</text>

  <line x1="1060" y1="791" x2="1096" y2="791" stroke="#d62b2b" stroke-width="1.5" stroke-dasharray="4,2" marker-end="url(#arr-red)"/>
  <text x="1102" y="796" font-size="9" fill="#333">Retry / Reformulate</text>

  <!-- FOOTER -->
  <text x="650" y="820" text-anchor="middle" font-size="8.5" fill="#888">Tech Stack: LangGraph · ChromaDB · OpenAI gpt-4.1-mini · text-embedding-3-small · BM25 · Cross-Encoder (LLM scoring) · RAGAS · MCP · LangFuse · Gradio · Python 3.11</text>
</svg>
